<svg xmlns="http://www.w3.org/2000/svg" xmlns:xlink="http://www.w3.org/1999/xlink" preserveAspectRatio="xMidYMid" width="20" height="20" viewBox="0 0 20 20">
  <defs>
    <style>
      .cls-1 {
        fill: #fff;
        fill-rule: evenodd;
      }
    </style>
  </defs>
  <path d="M15.854,19.986 L4.146,19.986 C1.848,19.986 -0.015,18.123 -0.015,15.825 L-0.015,4.175 C-0.015,1.877 1.848,0.014 4.146,0.014 L15.854,0.014 C18.151,0.014 20.014,1.877 20.014,4.175 L20.014,15.825 C20.014,18.123 18.151,19.986 15.854,19.986 ZM18.100,4.600 C18.100,3.109 16.891,1.900 15.400,1.900 L4.600,1.900 C3.109,1.900 1.900,3.109 1.900,4.600 L1.900,15.400 C1.900,16.891 3.109,18.100 4.600,18.100 L15.400,18.100 C16.891,18.100 18.100,16.891 18.100,15.400 L18.100,4.600 ZM10.440,12.888 L8.675,14.653 L8.674,14.651 L8.672,14.653 L6.907,12.888 L6.908,12.886 L3.838,9.816 L5.604,8.051 L8.674,11.121 L14.604,5.190 L16.369,6.956 L10.439,12.886 L10.440,12.888 Z" class="cls-1"/>
</svg>
