<svg xmlns="http://www.w3.org/2000/svg" xmlns:xlink="http://www.w3.org/1999/xlink" preserveAspectRatio="xMidYMid" width="20" height="20" viewBox="0 0 20 20">
  <defs>
    <style>
      .cls-1 {
        fill: #fff;
        fill-rule: evenodd;
      }
    </style>
  </defs>
  <path d="M15.854,19.986 L4.146,19.986 C1.848,19.986 -0.015,18.123 -0.015,15.825 L-0.015,4.175 C-0.015,1.876 1.848,0.014 4.146,0.014 L15.854,0.014 C18.151,0.014 20.014,1.876 20.014,4.175 L20.014,15.825 C20.014,18.123 18.151,19.986 15.854,19.986 ZM19.000,4.000 C19.000,2.343 17.657,1.000 16.000,1.000 L4.000,1.000 C2.343,1.000 1.000,2.343 1.000,4.000 L1.000,16.000 C1.000,17.657 2.343,19.000 4.000,19.000 L16.000,19.000 C17.657,19.000 19.000,17.657 19.000,16.000 L19.000,4.000 ZM10.440,12.888 L8.675,14.653 L8.674,14.651 L8.672,14.653 L6.907,12.888 L6.908,12.886 L3.838,9.816 L5.604,8.051 L8.674,11.121 L14.604,5.190 L16.369,6.956 L10.439,12.886 L10.440,12.888 Z" class="cls-1"/>
</svg>
