<svg xmlns="http://www.w3.org/2000/svg" xmlns:xlink="http://www.w3.org/1999/xlink" preserveAspectRatio="xMidYMid" width="20" height="20" viewBox="0 0 20 20">
  <defs>
    <style>
      .cls-1 {
        fill: #fff;
        fill-rule: evenodd;
      }
    </style>
  </defs>
  <path d="M4.146,0.014 L15.854,0.014 C18.151,0.014 20.014,1.877 20.014,4.175 L20.014,15.825 C20.014,18.123 18.151,19.986 15.854,19.986 L4.146,19.986 C1.848,19.986 -0.015,18.123 -0.015,15.825 L-0.015,4.175 C-0.015,1.877 1.848,0.014 4.146,0.014 ZM4.600,1.900 L15.400,1.900 C16.891,1.900 18.100,3.109 18.100,4.600 L18.100,15.400 C18.100,16.891 16.891,18.100 15.400,18.100 L4.600,18.100 C3.109,18.100 1.900,16.891 1.900,15.400 L1.900,4.600 C1.900,3.109 3.109,1.900 4.600,1.900 Z" class="cls-1"/>
</svg>
