<svg xmlns="http://www.w3.org/2000/svg" xmlns:xlink="http://www.w3.org/1999/xlink" preserveAspectRatio="xMidYMid" width="20.25" height="20.25" viewBox="0 0 20.25 20.25">
  <defs>
    <style>
      .cls-1 {
        fill: #f8f7f4;
        fill-rule: evenodd;
      }
    </style>
  </defs>
  <path d="M10.121,20.240 C4.535,20.240 0.006,15.711 0.006,10.124 C0.006,4.538 4.535,0.010 10.121,0.010 C15.707,0.010 20.236,4.538 20.236,10.124 C20.236,15.711 15.707,20.240 10.121,20.240 ZM10.121,1.258 C5.225,1.258 1.255,5.228 1.255,10.125 C1.255,15.021 5.225,18.991 10.121,18.991 C15.018,18.991 18.988,15.021 18.988,10.125 C18.988,5.228 15.018,1.258 10.121,1.258 ZM10.123,15.515 C7.145,15.515 4.732,13.102 4.732,10.125 C4.732,7.148 7.145,4.734 10.123,4.734 C13.100,4.734 15.513,7.148 15.513,10.125 C15.513,13.102 13.100,15.515 10.123,15.515 Z" class="cls-1"/>
</svg>
