<svg xmlns="http://www.w3.org/2000/svg" xmlns:xlink="http://www.w3.org/1999/xlink" preserveAspectRatio="xMidYMid" width="20.25" height="20.25" viewBox="0 0 20.25 20.25">
  <defs>
    <style>
      .cls-1 {
        fill: #f8f7f4;
        fill-rule: evenodd;
      }
    </style>
  </defs>
  <path d="M10.121,20.235 C4.535,20.235 0.006,15.706 0.006,10.120 C0.006,4.533 4.535,0.005 10.121,0.005 C15.707,0.005 20.236,4.533 20.236,10.120 C20.236,15.706 15.707,20.235 10.121,20.235 ZM10.121,1.254 C5.225,1.254 1.255,5.223 1.255,10.120 C1.255,15.016 5.225,18.986 10.121,18.986 C15.018,18.986 18.988,15.016 18.988,10.120 C18.988,5.223 15.018,1.254 10.121,1.254 ZM10.123,15.510 C7.146,15.510 4.732,13.097 4.732,10.120 C4.732,7.143 7.146,4.729 10.123,4.729 C13.100,4.729 15.513,7.143 15.513,10.120 C15.513,13.097 13.100,15.510 10.123,15.510 Z" class="cls-1"/>
</svg>
